Motion_sv09_l
version=1
nRows=9
nColumns=43
inDegrees=yes
endheader
time	pelvis_tilt	pelvis_list	pelvis_rotation	pelvis_tx	pelvis_ty	pelvis_tz	hip_flexion_r	hip_adduction_r	hip_rotation_r	knee_angle_r	ankle_angle_r	subtalar_angle_r	mtp_angle_r	hip_flexion_l	hip_adduction_l	hip_rotation_l	knee_angle_l	ankle_angle_l	subtalar_angle_l	mtp_angle_l	lumbar_extension	lumbar_bending	lumbar_rotation	neck_flexion	neck_lateral_bending	neck_rotation	arm_flex_r	arm_add_r	arm_rot_r	elbow_flex_r	pro_sup_r	wrist_flex_r	wrist_dev_r	hand_finger_flex_r	arm_flex_l	arm_add_l	arm_rot_l	elbow_flex_l	pro_sup_l	wrist_flex_l	wrist_dev_l	hand_finger_flex_l
      1.08750000	     -1.24759702	     18.15832633	     87.50866288	      0.05335679	      0.90590902	      0.45575857	     15.84274171	     -3.87269705	     -4.77478812	    -50.46087953	     15.62089125	     -5.73246055	     -2.65165636	     22.32439801	    -12.26660252	      3.83950485	    -58.07357338	      5.86426863	     11.87248682	     10.65921365	    -41.01991885	     13.01526949	     -8.29774345	    -25.72745816	    -13.97864090	      0.52023932	    -17.72215359	    -29.19679007	      4.91828040	     59.43671139	    138.22416048	     42.55778624	      9.38343851	     21.10043060	    -20.84247892	     -9.05971973	     -8.54925192	    118.19295902	    108.35729622	    -40.14681202	    -15.02521417	     32.77660979
      1.09000000	     -1.21446695	     18.08455682	     87.11839056	      0.05312718	      0.90666862	      0.45468265	     15.88610026	     -3.77799023	     -4.42494505	    -50.40010291	     15.39620270	     -5.81411868	     -2.42144865	     21.65963994	    -12.29468817	      3.30864948	    -57.01669644	      5.88970213	     12.37539972	     10.87647969	    -41.19679950	     12.78619803	     -7.93982767	    -25.60196349	    -14.02376552	      0.47966043	    -17.44726511	    -29.22611510	      4.42910001	     59.85965392	    138.91538907	     42.68266127	      9.27947668	     21.72834395	    -20.71179844	     -9.05783356	     -7.97906684	    117.80508650	    108.52040728	    -39.83172277	    -15.28442701	     32.39881634
      1.09250000	     -1.10405920	     17.83479121	     87.02771613	      0.05235079	      0.90704175	      0.45360225	     16.05163066	     -3.71087129	     -4.45289864	    -50.31437647	     15.39316089	     -5.83506405	     -2.37819077	     21.39107777	    -12.20925318	      3.24586851	    -56.14453175	      5.86587228	     12.50777057	     10.90355135	    -41.12429633	     12.81476319	     -7.91132006	    -25.43902361	    -13.96906690	      0.49613063	    -17.00083614	    -29.36843058	      4.35710589	     60.13280836	    139.09774616	     42.71432409	      9.32673009	     21.82885534	    -20.70301778	     -9.04844350	     -7.49724881	    117.54079768	    108.60805916	    -39.66267443	    -15.29565210	     32.36428425
      1.09500000	     -1.17024082	     17.83196364	     86.53536390	      0.05240680	      0.90780871	      0.45240790	     16.07686720	     -3.66077815	     -3.88697053	    -50.33770104	     15.20505098	     -5.96009195	     -2.05878202	     20.59900215	    -12.23664912	      2.47429749	    -55.12934882	      5.90973406	     13.26793373	     11.19637764	    -41.35694655	     12.39854104	     -7.44695417	    -25.29132574	    -13.91922206	      0.42282858	    -16.87588480	    -29.32719039	      3.71591303	     60.67162859	    140.23254632	     43.16168895	      9.05012292	     22.56975901	    -20.60660266	     -9.08255289	     -6.90815146	    117.15525713	    109.30313089	    -39.38744037	    -15.75702556	     31.85910373
      1.09750000	     -1.06546252	     17.57999827	     86.47295761	      0.05163541	      0.90820424	      0.45132374	     16.22437654	     -3.60663059	     -3.91585185	    -50.21025001	     15.07861198	     -5.91361331	     -2.03967888	     20.35610571	    -12.14666568	      2.44150051	    -54.31088543	      5.87720778	     13.36983993	     11.21666347	    -41.26311851	     12.44488789	     -7.44120369	    -25.21663750	    -13.93929125	      0.47536734	    -16.46741078	    -29.48183990	      3.71300073	     60.99784489	    140.44124452	     43.16047870	      9.10889776	     22.61815620	    -20.63545882	     -9.15630138	     -6.43388394	    116.96794207	    109.42428666	    -39.22977857	    -15.76339844	     31.84351132
      1.10000000	     -1.12840168	     17.57025385	     86.07567104	      0.05153844	      0.90899478	      0.45019224	     16.22734682	     -3.60245885	     -3.48215818	    -50.20163729	     14.85528023	     -5.94444410	     -1.75557192	     19.64270378	    -12.12309813	      1.79024217	    -53.37388349	      5.87711205	     14.05508281	     11.49243132	    -41.46769685	     12.08770361	     -7.09470255	    -25.12471300	    -13.93085290	      0.48327460	    -16.28960588	    -29.47412503	      3.23464592	     61.52818644	    141.60157604	     43.66742016	      8.83809846	     23.11807013	    -20.57174851	     -9.18430072	     -5.91409788	    116.66318507	    110.44657729	    -39.10857200	    -16.16044862	     31.42321767
      1.10250000	     -1.01469432	     17.33893484	     86.07478577	      0.05054106	      0.90934593	      0.44891494	     16.33011786	     -3.54024533	     -3.47300842	    -50.10792946	     14.83255972	     -5.92721093	     -1.74351828	     19.45395755	    -12.03414060	      1.75726615	    -52.72679758	      5.85228327	     14.10217972	     11.49763693	    -41.36620922	     12.18375467	     -7.13349675	    -25.07420688	    -13.87745458	      0.48830362	    -15.93764050	    -29.66484934	      3.27636115	     61.84952796	    141.70481353	     43.65419434	      8.87684445	     23.12692433	    -20.67647177	     -9.24172581	     -5.40967171	    116.61283582	    110.55119636	    -38.96858160	    -16.18615866	     31.44467156
      1.10500000	     -1.06349571	     17.38104599	     85.67769900	      0.05062160	      0.91033180	      0.44783773	     16.23462275	     -3.53313750	     -3.09634827	    -50.00759206	     14.59161101	     -5.85791425	     -1.46981871	     18.66912685	    -12.01723283	      1.14882048	    -51.77965837	      5.85170233	     14.68346260	     11.79765655	    -41.60890556	     11.82576941	     -6.80118701	    -24.96442647	    -13.89376568	      0.52034264	    -15.71340410	    -29.67509509	      3.00040380	     62.37671718	    142.88920357	     44.19331319	      8.66032575	     23.44954370	    -20.57578222	     -9.34020397	     -4.90970014	    116.22511887	    111.87906784	    -39.01218346	    -16.49544663	     31.09336779
      1.10750000	     -0.96595936	     17.15836786	     85.66547719	      0.04986830	      0.91066422	      0.44663424	     16.31529469	     -3.47053583	     -3.08300574	    -49.86616301	     14.53305799	     -5.81956483	     -1.45232615	     18.46154714	    -11.94294187	      1.13382606	    -51.13573699	      5.83558208	     14.72655880	     11.81669367	    -41.50306542	     11.87536940	     -6.81818085	    -24.91642599	    -13.84736572	      0.52939881	    -15.39461694	    -29.86018100	      3.14054162	     62.76185163	    143.05289523	     44.18579959	      8.71832019	     23.45060194	    -20.65687750	     -9.48620212	     -4.40327984	    116.14543168	    112.03216706	    -38.87552948	    -16.51489361	     31.11174161
